<?xml version="1.0" encoding="utf-8"?>
<!-- Generator: Adobe Illustrator 19.0.0, SVG Export Plug-In . SVG Version: 6.00 Build 0)  -->
<svg version="1.1" id="Layer_1" xmlns="http://www.w3.org/2000/svg" xmlns:xlink="http://www.w3.org/1999/xlink" x="0px" y="0px"
	 viewBox="0 0 126 33" style="enable-background:new 0 0 126 33;" xml:space="preserve">
<style type="text/css">
	.st0{opacity:0.87;}
	.st1{fill:#0088CC;}
</style>
<path id="XMLID_28_" class="st0" d="M53.8,17.5c0,1.4-0.2,2.6-0.6,3.8c-0.4,1.1-1,2.1-1.8,2.9c-0.8,0.8-1.7,1.4-2.8,1.8
	c-1.1,0.4-2.4,0.6-3.8,0.6c-0.6,0-1.2,0-1.9-0.1c-0.6-0.1-1.3-0.1-1.9-0.2c-0.6-0.1-1.2-0.2-1.8-0.3c-0.6-0.1-1.1-0.2-1.5-0.4V1.4
	l4.9-0.8v8.6c0.5-0.2,1.1-0.4,1.7-0.6c0.6-0.1,1.2-0.2,1.9-0.2c1.2,0,2.3,0.2,3.3,0.6c0.9,0.4,1.7,1,2.4,1.8
	c0.6,0.8,1.1,1.7,1.5,2.9C53.7,14.9,53.8,16.2,53.8,17.5 M48.8,17.4c0-3.2-1.2-4.8-3.5-4.8c-0.5,0-1,0.1-1.5,0.2
	c-0.5,0.1-0.9,0.3-1.2,0.5v8.9c0.2,0,0.5,0.1,0.9,0.1c0.4,0,0.8,0,1.2,0c1.3,0,2.4-0.5,3-1.4C48.5,20.2,48.8,18.9,48.8,17.4"/>
<path id="XMLID_25_" class="st0" d="M62.6,8.4c1.5,0,2.7,0.2,3.6,0.5c1,0.3,1.7,0.8,2.3,1.4c0.6,0.6,1,1.4,1.2,2.2
	c0.2,0.9,0.4,1.9,0.4,2.9v10.2c-0.7,0.2-1.7,0.3-2.9,0.5c-1.3,0.2-2.8,0.3-4.6,0.3c-1.1,0-2.1-0.1-3.1-0.3c-0.9-0.2-1.7-0.5-2.4-1
	c-0.7-0.5-1.2-1-1.5-1.8c-0.4-0.7-0.5-1.6-0.5-2.7c0-1,0.2-1.9,0.6-2.6c0.4-0.7,1-1.3,1.6-1.7c0.7-0.4,1.5-0.7,2.3-0.9
	c0.9-0.2,1.8-0.3,2.7-0.3c0.6,0,1.2,0,1.7,0.1c0.5,0.1,0.9,0.1,1.2,0.2v-0.5c0-0.8-0.3-1.5-0.8-2c-0.5-0.5-1.4-0.8-2.6-0.8
	c-0.8,0-1.7,0.1-2.5,0.2c-0.8,0.1-1.5,0.3-2.1,0.5l-0.6-4c0.3-0.1,0.6-0.2,1.1-0.3c0.4-0.1,0.9-0.2,1.4-0.3c0.5-0.1,1-0.1,1.6-0.2
	C61.5,8.4,62,8.4,62.6,8.4 M63,22.8c0.5,0,0.9,0,1.4,0c0.4,0,0.8-0.1,1.1-0.1v-3.7c-0.2,0-0.5-0.1-0.9-0.1c-0.4,0-0.8-0.1-1.1-0.1
	c-0.5,0-0.9,0-1.3,0.1c-0.4,0.1-0.8,0.2-1.1,0.3c-0.3,0.2-0.6,0.4-0.7,0.6c-0.2,0.3-0.3,0.6-0.3,1c0,0.8,0.3,1.3,0.8,1.6
	C61.4,22.6,62.1,22.8,63,22.8"/>
<path id="XMLID_22_" class="st0" d="M89.1,17.5c0,1.4-0.2,2.6-0.6,3.8c-0.4,1.1-1,2.1-1.8,2.9C86,25,85,25.6,83.9,26
	c-1.1,0.4-2.4,0.6-3.8,0.6c-0.6,0-1.2,0-1.9-0.1c-0.6-0.1-1.3-0.1-1.9-0.2c-0.6-0.1-1.2-0.2-1.8-0.3c-0.6-0.1-1.1-0.2-1.5-0.4V1.4
	l4.9-0.8v8.6C78.4,9,79,8.8,79.6,8.7c0.6-0.1,1.2-0.2,1.9-0.2c1.2,0,2.3,0.2,3.3,0.6c0.9,0.4,1.7,1,2.4,1.8c0.6,0.8,1.1,1.7,1.5,2.9
	C88.9,14.9,89.1,16.2,89.1,17.5 M84.1,17.4c0-3.2-1.2-4.8-3.5-4.8c-0.5,0-1,0.1-1.5,0.2c-0.5,0.1-0.9,0.3-1.2,0.5v8.9
	c0.2,0,0.5,0.1,0.9,0.1c0.4,0,0.8,0,1.2,0c1.3,0,2.4-0.5,3-1.4C83.7,20.2,84.1,18.9,84.1,17.4"/>
<path id="XMLID_6_" class="st0" d="M96.7,23.6c0,1-0.3,1.7-0.9,2.3c-0.6,0.5-1.3,0.8-2.1,0.8c-0.8,0-1.5-0.3-2.1-0.8
	c-0.6-0.5-0.9-1.3-0.9-2.3c0-1,0.3-1.7,0.9-2.3c0.6-0.5,1.3-0.8,2.1-0.8c0.8,0,1.5,0.3,2.1,0.8C96.4,21.9,96.7,22.6,96.7,23.6"/>
<path id="XMLID_5_" class="st0" d="M99,1.4l4.9-0.8v17.9c0,1,0.2,1.9,0.5,2.5c0.4,0.6,1.1,0.9,2.2,0.9c0.5,0,0.5,0,1.1-0.1
	c0.6-0.1,1.1-0.2,1.5-0.4l0.7,4.4c-0.6,0.2-1.3,0.5-2,0.6c-0.7,0.2-1.1,0.3-2.1,0.3c-1.3,0-2.5-0.2-3.3-0.5
	c-0.9-0.4-1.6-0.9-2.1-1.5c-0.5-0.6-0.9-1.4-1.1-2.4c-0.2-0.9-0.3-1.9-0.3-3.1V1.4z"/>
<path id="XMLID_17_" class="st0" d="M118.4,8.4c1.5,0,2.7,0.2,3.6,0.5c1,0.3,1.7,0.8,2.3,1.4c0.6,0.6,1,1.4,1.2,2.2
	c0.2,0.9,0.4,1.9,0.4,2.9v10.2c-0.7,0.2-1.7,0.3-2.9,0.5c-1.3,0.2-2.8,0.3-4.6,0.3c-1.1,0-2.1-0.1-3.1-0.3c-0.9-0.2-1.7-0.5-2.4-1
	c-0.7-0.5-1.2-1-1.5-1.8c-0.4-0.7-0.5-1.6-0.5-2.7c0-1,0.2-1.9,0.6-2.6c0.4-0.7,1-1.3,1.6-1.7c0.7-0.4,1.5-0.7,2.3-0.9
	c0.9-0.2,1.8-0.3,2.7-0.3c0.6,0,1.2,0,1.7,0.1c0.5,0.1,0.9,0.1,1.2,0.2v-0.5c0-0.8-0.3-1.5-0.8-2c-0.5-0.5-1.4-0.8-2.6-0.8
	c-0.8,0-1.7,0.1-2.5,0.2c-0.8,0.1-1.5,0.3-2.1,0.5l-0.6-4c0.3-0.1,0.6-0.2,1.1-0.3c0.4-0.1,0.9-0.2,1.4-0.3c0.5-0.1,1-0.1,1.6-0.2
	C117.3,8.4,117.9,8.4,118.4,8.4 M118.8,22.8c0.5,0,0.9,0,1.4,0c0.4,0,0.8-0.1,1.1-0.1v-3.7c-0.2,0-0.5-0.1-0.9-0.1
	c-0.4,0-0.8-0.1-1.1-0.1c-0.5,0-0.9,0-1.3,0.1c-0.4,0.1-0.8,0.2-1.1,0.3c-0.3,0.2-0.5,0.4-0.7,0.6c-0.2,0.3-0.3,0.6-0.3,1
	c0,0.8,0.3,1.3,0.8,1.6C117.2,22.6,117.9,22.8,118.8,22.8"/>
<path id="XMLID_14_" class="st1" d="M15.8,0C7.1,0,0,5.9,0,13.2C0,19.4,5.2,24.6,12.1,26c-0.6,2.3-1.5,5.1-3,6.5
	c2.9,0,5.7-3.2,7.6-6.1c8.3-0.4,14.8-6.1,14.8-13.2C31.5,5.9,24.5,0,15.8,0 M16.4,18.1c-5.3,0-9.6-3.1-9.6-6.9
	c0-3.8,4.3-6.9,9.6-6.9c5.3,0,9.6,3.1,9.6,6.9C26,15,21.7,18.1,16.4,18.1"/>
</svg>
