<svg xmlns="http://www.w3.org/2000/svg" width="48" height="48" xmlns:v="https://vecta.io/nano"><path fill="#304ffe" d="M41.67 13.48c-.4.26-.97.5-1.21.77-.09.09-.14.19-.12.29v1.03l-.3 1.01-.3 1-.33 1.1-.68 2.25-.66 2.22-.5 1.67-.03.77c-.07.96-.27 1.88-.59 2.74a9.11 9.11 0 0 1-.7 1.52c-.1.19-.22.38-.34.56a9.37 9.37 0 0 1-1.41 1.72c-.41.41-.86.79-1.35 1.11-.09.07-.18.13-.28.18-.31.21-.64.39-.98.55a6.21 6.21 0 0 1-.7.31c-.05.03-.11.05-.16.07-.57.27-1.23.45-1.89.54-.04.01-.07.01-.11.02l-1.19.16a5.07 5.07 0 0 1-.55.03l-.71-.04-3.42-.18-1.73-.09c-.13 0-.27 0-.4-.01a9.22 9.22 0 0 1-1.58-.19c-.96-.18-1.87-.5-2.72-.93-.47-.24-.93-.51-1.36-.82-.18-.13-.35-.27-.52-.42a13.16 13.16 0 0 1-1.31-1.27c-.06-.06-.11-.12-.16-.18-.06-.06-.12-.13-.17-.19-.38-.48-.7-.97-.96-1.49-.24-.46-.43-.95-.58-1.49l-.15-.57c-.01-.01-.02-.03-.02-.05-.1-.41-.19-.84-.24-1.27a5.55 5.55 0 0 1-.09-1c-.02-.13-.02-.27-.02-.4l1.91-2.95 1.87-2.88.85-1.31.77-1.18.26-.41v-1.03c.02-.23.03-.47.02-.69-.01-.7-.15-1.38-.38-2.03-.22-.69-.53-1.34-.85-1.94l-1.11-1.87c-.49-.82-.83-1.49-.74-1.96C14.47 6.09 15.23 6 16 6h16c4.18 0 7.78 2.6 9.27 6.26.16.39.3.8.4 1.22z"/><path fill="#4928f4" d="M42 16v.27l-1.38.8-.88.51-.97.56-1.94 1.13-1.9 1.1-1.94 1.12-.77.45a2.7 2.7 0 0 1-.34 1.32c-.31.58-.83 1.06-1.49 1.47-.67.41-1.49.74-2.41.98-3.57.92-8.43.5-10.79-1.26-.66-.49-1.12-1.09-1.32-1.78a2.92 2.92 0 0 1-.09-.73v-7.19c.01-.15-.09-.3-.27-.45-.54-.43-1.81-.84-3.23-1.25l-3.3-.92c-.79-.24-1.46-.48-1.86-.71.18-.35.39-.7.61-1.03 1.4-2.05 3.54-3.56 6.02-4.13C14.47 6.09 15.23 6 16 6h10.8a33.68 33.68 0 0 1 14.47 6.26c.16.39.3.8.4 1.22a9.23 9.23 0 0 1 .32 2.05c.01.15.01.31.01.47z"/><path fill="#6200ea" d="M42 16v4.41l-.22.68-.75 2.33-.78 2.4-.41 1.28-.38 1.19-.37 1.13-.36 1.12-.19.59-.25.78-.07 2c-.01.06-.02.12-.02.18-.06.53-.14.98-.27 1.36-.01.06-.03.12-.05.17-.26.72-.65 1.18-1.23 1.48-.14.08-.3.14-.47.2-.53.18-1.2.27-2.02.32l-2.07.05h-.69l-1.19-.05-.21-.01-2.17-.09-2.2-.09-7.25-.3-1.88-.08h-.26a16.44 16.44 0 0 1-2.03-.14c-.84-.13-1.49-.35-1.98-.68-.7-.45-1.11-1.11-1.35-2.03-.06-.22-.11-.45-.14-.7-.1-.58-.15-1.25-.18-2l-.01-.46v-.59l-.01-.9.05-1.61.03-1.15.04-1.34v-.19l.07-2.46.07-2.46.07-2.31.06-2.27.02-.6c0-.31-1.05-.49-2.22-.64l-2.56-.37.16-.68c.18-.72.45-1.4.79-2.05.18-.35.39-.7.61-1.03 2.16-.95 4.41-1.69 6.76-2.17a31.44 31.44 0 0 1 6.43-.66c7.36 0 14.16 2.49 19.54 6.69.52.4 1.03.83 1.53 1.28.01.15.01.31.01.47z"/><path fill="#673ab7" d="M42 18.37v4.54l-.55 1.06-1.05 2.05-.56 1.08-.51.99-.22.43-.02.9-.05 1.22-.16 1.24c-.15.79-.36 1.47-.66 2.03l-.12.2a3.75 3.75 0 0 1-.38.51c-.18.22-.38.41-.61.57-.34.26-.74.47-1.2.63-.57.21-1.23.35-2.01.43l-1.68.08-.42.02-2.08.12h-.01l-2.21.13-2.25.13-3.1.18-3.77.22-.55.03c-.51 0-.99-.03-1.45-.09-.05-.01-.09-.02-.14-.02-.68-.11-1.3-.29-1.86-.54-.68-.3-1.27-.7-1.77-1.18-.44-.43-.82-.92-1.13-1.47l-.2-.39c-.3-.59-.54-1.25-.72-1.97l-.08-.38c-.06-.23-.11-.47-.14-.72-.11-.64-.17-1.32-.2-2.03v-.01l-.02-.87-.49-1.17-.07-.18-.06-.15-.75-1.79-.12-.29-.72-1.73-.8-1.93-.82-1.95-.29-.71V16c0-.63.06-1.25.17-1.85l.16-.68a27.39 27.39 0 0 1 2.65-1.34c2.08-.93 4.31-1.62 6.62-2.04 1.72-.31 3.51-.48 5.32-.48 7.31 0 13.94 2.65 19.12 6.97a13.64 13.64 0 0 1 .58.49 23.92 23.92 0 0 1 1.38 1.3z"/><path fill="#8e24aa" d="M42 21.35v5.14l-.57 1.19-1.08 2.25-.01.03-.05 1.17c-.1 1.15-.38 1.88-.84 2.33-.33.34-.74.53-1.25.63-.03.01-.07.01-.1.02-.16.03-.33.05-.51.05-.62.06-1.35.02-2.19-.04a3.03 3.03 0 0 1-.29-.02l-1.98-.11-1.22-.02h-.02l-1.01.08h-.01l-2.27.16-2.59.2-.38.03-3.03.22-1.57.12-1.55.11c-.27 0-.53 0-.79-.01-1.14-.02-2.15-.09-3.05-.26-.83-.14-1.56-.36-2.18-.69-.64-.31-1.17-.75-1.6-1.31-.41-.55-.71-1.24-.9-2.07-.14-.68-.22-1.46-.22-2.34l-.15-.27-.89-1.59-.13-.22-.07-.14-.93-1.65-.46-.83-.58-1.03-1-1.79-.53-.94v-3.68c.88-.58 1.79-1.09 2.73-1.55 1.14-.58 2.32-1.07 3.55-1.47a27.3 27.3 0 0 1 4.17-1.02c1.45-.24 2.94-.36 4.47-.36 6.8 0 13.04 2.43 17.85 6.47.22.17.43.36.64.54.84.75 1.64 1.56 2.37 2.41.08.09.16.17.22.26z"/><path fill="#c2185b" d="M42 24.71v7.23c-.24-.14-.57-.31-.98-.49-.22-.11-.47-.22-.73-.32l-1.25-.49a2.81 2.81 0 0 0-.31-.1l-.56-.19-1.92-.5-.8-.14a17.39 17.39 0 0 0-2.77-.25c-.08-.01-.17-.01-.25-.01l-2.57.02-3.5.02h-.01l-7.49.06c-2.38 0-3.84.57-4.72.8-.94.25-1.23.1-1.31-1.53l-.03-1.74-.56-.43-.98-.74-.6-.46-.12-.09-1.66-1.26-.25-.19-.52-.4-.96-.72L6 21.91v-3.4l.29-.21a25.75 25.75 0 0 1 4.64-2.54 26.28 26.28 0 0 1 4.58-1.46l1.32-.24c1.33-.23 2.7-.34 4.09-.34 6.01 0 11.53 2.09 15.91 5.55.66.52 1.3 1.07 1.9 1.66.82.78 1.59 1.61 2.3 2.49l.42.55c.19.24.37.49.55.74z"/><path fill="#d81b60" d="M42 28.72V32c0 .65-.06 1.29-.18 1.91a9.93 9.93 0 0 1-.91 2.62c-.22.05-.47.05-.75.01-.63-.11-1.37-.44-2.17-.87a.37.37 0 0 1-.11-.05l-.77-.43-1.65-.91-.35-.18c-.64-.33-1.3-.63-1.96-.86l-.45-.14c-.57-.16-1.15-.26-1.71-.26l-1.1-.32-4.87-1.41-3-.87h-.01l-1.3-.38c-3.76 0-6.07 1.6-7.19.99-.44-.23-.7-.81-.79-1.95-.03-.32-.04-.68-.04-1.1l-1.17-.57-.05-.02h-.01l-.84-.42-.92-.44-.07-.03-.17-.09-1.96-.95-1.5-.73v-3.43l.53-.43.57-.44a23.75 23.75 0 0 1 3.77-2.22c1.55-.74 3.2-1.31 4.91-1.68l.77-.16a23.37 23.37 0 0 1 4.37-.41c5.27 0 10.11 1.71 14.01 4.59 1.13.84 2.18 1.77 3.14 2.78.79.83 1.52 1.73 2.18 2.67.05.07.1.14.15.2a21.83 21.83 0 0 1 1.03 1.66c.21.34.39.69.57 1.04z"/><path fill="#f50057" d="M41.82 33.91a9.93 9.93 0 0 1-.91 2.62c-.19.37-.4.72-.63 1.06l-.44.6-1.54-.56-1.65-.53-.52-.15c-.71-.19-1.45-.36-2.17-.46-.6-.1-1.19-.16-1.74-.16l-.46-.13h-.01l-2.42-.7-1.49-.43-1.66-.48h-.01l-.54-.15-6.53-1.88-1.88-.54-1.4-.33-2.28-.54-.28-.07-2.3-.53-.41-.1-.21-.05-1.67-.39-.19-.05-1.42-1.17L6 27.9v-4.08l1.15-1.03a5.7 5.7 0 0 1 .38-.31l.38-.3a20.2 20.2 0 0 1 2.89-1.84c1.3-.7 2.68-1.26 4.13-1.66l.85-.23c1.64-.41 3.36-.62 5.14-.62 4.47 0 8.63 1.35 12.07 3.66a21.43 21.43 0 0 1 4.55 4.1c.66.79 1.26 1.62 1.79 2.5.05.07.09.13.13.2.32.53.62 1.08.89 1.64a17.1 17.1 0 0 1 .67 1.52c.32.8.58 1.62.8 2.46z"/><path fill="#ff1744" d="M40.28 37.59l-.44.6c-.44.55-.92 1.05-1.46 1.49a10.29 10.29 0 0 1-1.5 1.04c-.2-.05-.4-.11-.61-.19-.66-.23-1.35-.61-1.99-1.01-.96-.61-1.79-1.27-2.16-1.57l-.21-.18-1.7-.15-.21-.02-2.2-.19-2.28-.2-3.37-.3-5.34-.47-.02-.01-1.88-.91-1.9-.92-1.53-.74-.33-.16-.41-.2-1.42-.69-1.89-.91-.59-.29-.84-.26v-4.47a20.58 20.58 0 0 1 1.5-1.6l1.07-.94.18-.14a.38.38 0 0 1 .13-.1c.59-.48 1.21-.91 1.85-1.3.74-.47 1.52-.89 2.33-1.24a17.92 17.92 0 0 1 2.72-.97 18.93 18.93 0 0 1 5.14-.7 19.31 19.31 0 0 1 10.96 3.37 19.4 19.4 0 0 1 5.07 5.07c.45.64.85 1.32 1.22 2.02a13.75 13.75 0 0 1 .37.78l.34.75.57 1.58c.32 1 .56 2.02.71 3.08a18.74 18.74 0 0 1 .12 1.05z"/><path fill="#ff5722" d="M38.39 39.42l-.01.26a10.29 10.29 0 0 1-1.5 1.04l-.67.34-.7.3-1.29-.61c-.69-.31-1.44-.59-2.02-.68-.14-.03-.27-.04-.39-.04l-1.64-.21h-.02l-2.04-.27-2.06-.27-.96-.12-7.56-.98a12.07 12.07 0 0 1-1.55-.1 18.96 18.96 0 0 1-2.04-.3l-2.03-.45-2-.53-1.98-.62-1.18-.4c-.18-.43-.33-.88-.44-1.34A9.38 9.38 0 0 1 6 32v-1.67c.32-.53.67-1.05 1.06-1.54.71-.94 1.52-1.8 2.4-2.56.03-.04.07-.07.1-.09l.01-.01a10.24 10.24 0 0 1 .97-.77c.04-.04.08-.07.12-.1l.51-.35a17.24 17.24 0 0 1 4.7-2.24c1.6-.48 3.29-.73 5.05-.73a17.4 17.4 0 0 1 9.47 2.79 17.28 17.28 0 0 1 5.06 4.98l.46.7c.69 1.17 1.26 2.43 1.68 3.75l.13.46.21.83.06.22c.14.63.24 1.29.31 1.95l.09 1.8z"/><path fill="#ff6f00" d="M36.33 39.42a10.75 10.75 0 0 1-.06 1.11l-.06.53-.7.3c-.45.17-.91.31-1.38.41-.32.07-.65.13-.98.16h-.01l-1.04-.68-1.93-1.43-.02-.02-1.01-.79-1.06.04-2.04.07-.95.04-3.82.14-3.23.12h-.77-.01l-1.47-.09-2.05-.18-2.06-.24-2.04-.25-1.21-.15a9.6 9.6 0 0 1-.77-1.01 9.12 9.12 0 0 1-.91-1.72c-.18-.43-.33-.88-.44-1.34a14.41 14.41 0 0 1 1.12-2.54 14.64 14.64 0 0 1 1.24-1.89c.45-.59.94-1.14 1.47-1.64v-.01l.45-.42c.28-.26.57-.5.87-.73h.01c.01-.02.02-.02.03-.03l.74-.53a15.15 15.15 0 0 1 4.95-2.2c1.19-.29 2.44-.45 3.73-.45 2.54 0 4.94.61 7.05 1.71h.01c1.81.93 3.41 2.21 4.7 3.75a14.15 14.15 0 0 1 1.82 2.67c.35.64.65 1.31.9 1.99l.06.16.45 1.54.22 1.13.05.35a14.8 14.8 0 0 1 .15 2.12z"/><path fill="#ff9800" d="M34.28 39.42v.1l-.06 1.23-.09 1.02c-.32.07-.65.13-.98.16h-.01c-.38.05-.75.07-1.14.07h-1.75l-.38-.11-1.97-.6-2-.6-4.63-1.39-2-.6-2 .72h-.01l-1.46.47-2.02.53c-.7.16-1.39.28-2.01.33-.19.02-.38.03-.55.03a10.17 10.17 0 0 1-1.59-1.09 10.28 10.28 0 0 1-1.2-1.18 9.6 9.6 0 0 1-.77-1.01l.27-1.32c.3-1.19.77-2.33 1.39-3.37.34-.59.72-1.16 1.16-1.69.01-.03.04-.06.07-.08.13-.18.27-.34.41-.49.41-.45.83-.87 1.29-1.26l.48-.39c.03-.03.06-.05.1-.08 2.25-1.72 5.06-2.76 8.09-2.76 3.44 0 6.57 1.29 8.94 3.41a13.4 13.4 0 0 1 2.84 3.63 3.24 3.24 0 0 1 .17.32l.26.57a11.81 11.81 0 0 1 .77 2.26l.06.24.2 1.13a13.38 13.38 0 0 1 .12 1.8z"/><path fill="#ffc107" d="M32.22 39.42l-.02.65-.1 1.18c-.02.25-.06.5-.1.75h-5.48l-1.06-.17-4.14-.66-.59-.09-1.35-.22c-.59 0-1.87.26-3.22.51l-2.08.36-.23.03h-.01a9.42 9.42 0 0 1-2.02-.68l-.6-.3a10.17 10.17 0 0 1-1.59-1.09l-.02-.27.03-.76c.04-.64.13-1.26.27-1.86.22-.91.54-1.79.97-2.6a4.82 4.82 0 0 1 .27-.5c.04-.08.09-.15.13-.23l.58-.85a12.72 12.72 0 0 1 1.39-1.54l.13-.11c.05-.04.09-.09.14-.12.2-.18.4-.34.61-.49 1.9-1.42 4.24-2.25 6.79-2.25 1.98 0 3.82.5 5.43 1.38h.01c1.38.76 2.58 1.79 3.53 3.03.37.48.7.99.98 1.53h.01l.15.3a10.13 10.13 0 0 1 .72 1.85h.01c.01.05.03.1.04.15a11.47 11.47 0 0 1 .29 1.32l.03.28c.07.48.1.97.1 1.47z"/><path fill="#ffd54f" d="M30.17 39.31l-.02.49v.01a9.76 9.76 0 0 1-.28 2.08c0 .04-.01.07-.03.11h-4.67l-3.85-.83-.51-.11-.08.02-4.27.88-.19.04H16c-.64 0-1.27-.06-1.88-.18l-.27-.06h-.01a9.42 9.42 0 0 1-2.02-.68l-.05-.33a8.33 8.33 0 0 1-.1-1.33l.01-.51c.03-.54.11-1.07.23-1.58a7.77 7.77 0 0 1 .32-1.1 8.99 8.99 0 0 1 .38-.9 10.34 10.34 0 0 1 .4-.73l.45-.67a9.03 9.03 0 0 1 1.39-1.51 8.78 8.78 0 0 1 .97-.73c1.46-.96 3.21-1.52 5.1-1.52.37 0 .73.02 1.08.07h.02c1.07.12 2.07.42 2.99.87 1.46.71 2.69 1.78 3.59 3.1l.43.7c.11.19.21.39.3.59.14.31.27.64.38.97h.01L30 37.6v.01c.11.55.17 1.12.17 1.7z"/><path fill="#ffe082" d="M28.11 39.52v.03a7.27 7.27 0 0 1-.21 1.74c-.05.24-.12.48-.21.71h-4.48l-2.29-.63-2.29.63H16c-.64 0-1.27-.06-1.88-.18-.02-.03-.03-.06-.04-.09-.14-.43-.25-.86-.3-1.31a6.58 6.58 0 0 1-.06-.9c0-.12 0-.25.02-.37.01-.47.08-.93.2-1.37.06-.3.15-.59.27-.87.04-.14.1-.27.17-.4.15-.34.33-.67.53-.99.22-.32.46-.62.73-.9a5.56 5.56 0 0 1 1.09-.96c.7-.51 1.5-.89 2.37-1.1a6.83 6.83 0 0 1 1.82-.24c2 0 3.79.8 5.09 2.09.05.05.11.11.16.18h.01l.4.47a6.83 6.83 0 0 1 .92 1.54c.12.26.22.53.3.81l.03.11c.14.49.23 1 .25 1.53.02.15.03.31.03.47z"/><path fill="#ffecb3" d="M26.06 39.52c0 .41-.05.8-.16 1.17a5.08 5.08 0 0 1-.44 1.14c-.03.06-.1.17-.1.17h-8.88c-.01-.01-.02-.03-.02-.04-.12-.19-.22-.38-.3-.59a4.59 4.59 0 0 1-.36-1.48c-.02-.12-.02-.25-.02-.37 0-.06 0-.13.01-.19.01-.44.07-.86.19-1.25.1-.36.23-.69.4-1.01 0 0 .01-.01.01-.02a5.93 5.93 0 0 1 .4-.62 5 5 0 0 1 1.89-1.55c.25-.12.5-.22.76-.29a5.19 5.19 0 0 1 1.48-.21c.59 0 1.16.09 1.68.28a2.87 2.87 0 0 1 .55.22 4.96 4.96 0 0 1 2.1 1.85c.1.15.19.31.27.48.04.07.08.15.11.22a4.99 4.99 0 0 1 .41 1.69.81.81 0 0 1 .01.16c.01.08.01.16.01.24z"/><path fill="none" stroke="#fff" stroke-linejoin="round" stroke-miterlimit="10" stroke-width="2" d="M30 11H18c-3.9 0-7 3.1-7 7v12c0 3.9 3.1 7 7 7h12c3.9 0 7-3.1 7-7V18c0-3.9-3.1-7-7-7z"/><circle cx="31" cy="16" r="1" fill="#fff"/><circle cx="24" cy="24" r="6" fill="none" stroke="#fff" stroke-linejoin="round" stroke-width="2"/></svg>