<svg xmlns="http://www.w3.org/2000/svg" width="48" height="48" xmlns:v="https://vecta.io/nano"><path d="M43.609 20.082H42V20H24v8h11.305c-1.652 4.656-6.082 8-11.305 8a12 12 0 1 1 0-24c3.059 0 5.844 1.152 7.961 3.039l5.656-5.656C34.047 6.055 29.27 4 24 4 12.953 4 4 12.953 4 24s8.953 20 20 20 20-8.953 20-20a19.95 19.95 0 0 0-.391-3.918zm0 0" fill="rgb(100%,75.686276%,2.745098%)"/><path d="M6.305 14.691l6.574 4.82C14.656 15.109 18.961 12 24 12c3.059 0 5.844 1.152 7.961 3.039l5.656-5.656C34.047 6.055 29.27 4 24 4 16.316 4 9.656 8.336 6.305 14.691zm0 0" fill="rgb(100%,23.921569%,0%)"/><path d="M24 44c5.164 0 9.859-1.977 13.41-5.191l-6.191-5.238C29.211 35.09 26.715 36 24 36c-5.203 0-9.617-3.316-11.281-7.945l-6.523 5.023C9.504 39.555 16.227 44 24 44zm0 0" fill="rgb(29.803923%,68.627453%,31.37255%)"/><path d="M43.609 20.082H42V20H24v8h11.305c-.793 2.238-2.234 4.164-4.09 5.57l6.195 5.238C36.973 39.203 44 34 44 24a19.95 19.95 0 0 0-.391-3.918zm0 0" fill="rgb(9.803922%,46.27451%,82.352942%)"/></svg>